<svg width="50" height="50" viewBox="0 0 50 50" fill="none" xmlns="http://www.w3.org/2000/svg">
<g clip-path="url(#clip0_4109_1622)">
<rect width="50" height="50" rx="25" fill="#FE375B"/>
<rect width="50" height="50" fill="#381E72" fill-opacity="0.12"/>
<g clip-path="url(#clip1_4109_1622)">
<path d="M18.7556 22.5231C19.58 22.5231 20.3891 22.4564 21.1817 22.5474C21.6928 22.6056 22.1792 22.8907 22.675 23.0799C25.1635 24.0274 27.6508 24.9761 30.1394 25.9248C30.9708 26.2415 31.343 26.8675 31.2005 27.7045C31.0756 28.4337 30.422 28.9456 29.6094 28.9468C28.7661 28.9468 27.9217 28.9274 27.0785 28.9541C26.5085 28.9723 25.9761 28.885 25.4532 28.6447C25.0081 28.4397 24.5417 28.2808 24.0518 28.0891C23.9151 28.4846 23.7821 28.868 23.6372 29.2853C24.1695 29.4794 24.6924 29.6444 25.1941 29.8603C25.8949 30.1624 26.6133 30.2486 27.3694 30.2413C29.9003 30.217 32.4312 30.2304 34.9621 30.2328C36.267 30.234 37.3917 31.2482 37.493 32.499C37.5095 32.7004 37.4836 32.8144 37.2598 32.8993C34.0658 34.1186 30.8766 35.3548 27.685 36.5801C27.5661 36.625 27.413 36.6383 27.2916 36.6031C24.5217 35.7939 21.7552 34.9738 18.9841 34.1671C18.7768 34.1064 18.7332 34.0154 18.7344 33.8141C18.7391 30.1564 18.7379 26.4974 18.7391 22.8397C18.7391 22.7415 18.7474 22.6432 18.7532 22.5243L18.7556 22.5231Z" fill="#FFF9F9"/>
<path d="M11.25 22.5254H16.2235V36.6345H11.25V22.5254Z" fill="#FFF9F9"/>
</g>
<g clip-path="url(#clip2_4109_1622)">
<path d="M33.0022 12.5C33.0809 12.5215 33.1592 12.5476 33.2389 12.5641C34.6448 12.8486 35.6226 13.6588 36.0577 15.0299C36.4922 16.3996 36.1887 17.6475 35.182 18.6771C33.5818 20.3142 31.9581 21.9272 30.3434 23.5492C30.0753 23.8186 29.9228 23.8176 29.6527 23.5462C28.0494 21.9362 26.4407 20.3312 24.8464 18.7117C23.8293 17.6786 23.5053 16.4326 23.9354 15.05C24.369 13.6553 25.3583 12.8375 26.7871 12.5591C26.8504 12.5471 26.9107 12.52 26.972 12.5C27.2211 12.5 27.4703 12.5 27.7195 12.5C27.7409 12.512 27.7609 12.5326 27.7833 12.5356C28.635 12.6482 29.3551 13.0248 29.9641 13.6273C29.9736 13.6368 29.9946 13.6343 30.01 13.6368C30.025 13.6298 30.0424 13.6258 30.0544 13.6152C30.0977 13.5767 30.1391 13.5361 30.1814 13.4961C30.6768 13.0308 31.2549 12.7254 31.9202 12.5897C32.0488 12.5636 32.1764 12.5296 32.3045 12.4995C32.5372 12.4995 32.7694 12.4995 33.0022 12.4995V12.5ZM29.999 22.8812C30.0638 22.8231 30.1211 22.7765 30.1725 22.7249C31.676 21.2146 33.1826 19.7077 34.6807 18.1919C35.8274 17.0316 35.8264 15.2127 34.6906 14.0735C33.5519 12.9307 31.7533 12.9317 30.5911 14.076C30.4844 14.1811 30.3828 14.2913 30.2731 14.3935C30.0887 14.5647 29.9093 14.5647 29.7239 14.3925C29.5959 14.2733 29.4797 14.1421 29.3517 14.0234C28.625 13.3488 27.7674 13.0824 26.8 13.2787C25.6902 13.5036 24.9322 14.1816 24.5978 15.2643C24.2604 16.3565 24.5006 17.3551 25.3034 18.1738C26.8015 19.7012 28.318 21.2101 29.8276 22.7264C29.8789 22.778 29.9357 22.8246 29.9995 22.8817L29.999 22.8812Z" fill="#FFF9F9"/>
<path d="M29.999 22.8813C29.9352 22.8242 29.8784 22.7776 29.8271 22.726C28.3175 21.2097 26.801 19.7008 25.3029 18.1734C24.4996 17.3542 24.2599 16.3556 24.5972 15.2639C24.9317 14.1807 25.6897 13.5032 26.7995 13.2783C27.7669 13.0825 28.6245 13.3489 29.3512 14.023C29.4792 14.1417 29.5959 14.2734 29.7234 14.392C29.9088 14.5648 30.0887 14.5643 30.2726 14.393C30.3823 14.2909 30.4839 14.1807 30.5906 14.0756C31.7528 12.9313 33.5514 12.9303 34.6901 14.0731C35.8259 15.2128 35.8269 17.0312 34.6802 18.1915C33.1821 19.7073 31.6755 21.2142 30.172 22.7245C30.1201 22.7766 30.0633 22.8227 29.9985 22.8808L29.999 22.8813Z" fill="#FFF9F9"/>
</g>
</g>
<defs>
<clipPath id="clip0_4109_1622">
<rect width="50" height="50" rx="25" fill="white"/>
</clipPath>
<clipPath id="clip1_4109_1622">
<rect width="26.25" height="14.1346" fill="white" transform="translate(11.25 22.5)"/>
</clipPath>
<clipPath id="clip2_4109_1622">
<rect width="12.5" height="11.25" fill="white" transform="translate(23.75 12.5)"/>
</clipPath>
</defs>
</svg>
