<svg xmlns="http://www.w3.org/2000/svg" fill="none" viewBox="0 0 50 50">
  <path fill="#FE375B" d="M50 25C50 11.193 38.807 0 25 0S0 11.193 0 25s11.193 25 25 25 25-11.193 25-25Z"/>
  <path fill="white" d="m33.378 12 .077.023c.055.016.11.032.166.044 1.446.294 2.452 1.134 2.9 2.554.447 1.419.135 2.711-.9 3.778-1.195 1.23-2.401 2.446-3.608 3.663-.457.46-.914.921-1.37 1.383-.276.28-.433.278-.711-.003l-1.316-1.33a772.115 772.115 0 0 1-3.628-3.677c-1.046-1.07-1.38-2.361-.937-3.793.446-1.445 1.463-2.292 2.933-2.58.045-.009.088-.025.131-.04l.06-.021h.768l.022.014c.014.01.029.02.044.022.876.117 1.617.507 2.244 1.131.006.007.019.008.032.009l.015.001a.252.252 0 0 1 .015-.006.101.101 0 0 0 .03-.016l.096-.09.035-.034a3.619 3.619 0 0 1 1.789-.939c.088-.018.176-.04.263-.061L32.66 12h.718ZM19.477 22.371c.588-.014 1.168-.028 1.74.038.37.042.727.201 1.084.36.15.067.3.133.452.192 2.015.772 4.03 1.546 6.045 2.32l1.633.626c.855.328 1.238.977 1.092 1.844-.129.755-.801 1.285-1.637 1.286-.257 0-.514-.001-.77-.003a47.243 47.243 0 0 0-1.834.01 3.603 3.603 0 0 1-1.671-.32 14.746 14.746 0 0 0-.986-.4c-.15-.057-.302-.114-.456-.175l-.415 1.206-.012.033c.168.062.335.12.501.179.375.132.743.261 1.101.417.72.313 1.46.402 2.238.394 2.017-.02 4.035-.015 6.053-.012h.004c.584.002 1.169.003 1.753.003 1.343.002 2.5 1.052 2.604 2.348.017.208-.01.326-.24.414-2.017.776-4.032 1.557-6.047 2.34-1.267.49-2.535.983-3.803 1.473a.676.676 0 0 1-.404.024l-3.828-1.131h-.001l-.002-.001c-1.572-.465-3.143-.93-4.715-1.392-.213-.062-.258-.157-.257-.365.003-2.706.004-5.413.004-8.12v-3.247c0-.071.005-.142.01-.22l.005-.107.003-.001c.253 0 .506-.006.756-.013ZM11 22.386h5.116V37H11V22.386Z"/>
</svg>
