<svg xmlns="http://www.w3.org/2000/svg" fill="none" viewBox="0 0 32 32">
  <path fill="white" d="M22.988 24.242a.595.595 0 0 1-.354-.116L5.514 11.522a.596.596 0 0 1-.06-.91l.026-.026a.603.603 0 0 1 .767-.05l17.127 12.61a.598.598 0 0 1-.047.991l-.035.02a.596.596 0 0 1-.304.085ZM29.308 17.458a.596.596 0 0 1-.354-.116L13.357 5.86a.596.596 0 0 1 .084-1.013l.029-.014a.596.596 0 0 1 .624.05l15.58 11.471c.234.172.31.486.181.745l-.014.03a.597.597 0 0 1-.533.329Z"/>
  <path fill="url(#a)" d="M30.59 14.452a1.2 1.2 0 0 0 .084-.95 9.187 9.187 0 0 1-.234-.924c-.16-.746 0-1.332.213-1.492.214-.16 1.173-1.596.533-1.41-.639.184-2.344.4-2.824 0-.48-.402-1.705-2.054-2.451-2.32-.746-.267-2.079-1.12-2.665-1.386-.586-.267-1.545-.853-2.344-.96-.563-.074-3.209-.202-4.729-.271a4.177 4.177 0 0 0-2.067.44c-.116.059-.239.12-.365.185l15.58 11.47c.415-.83.943-1.778 1.268-2.382Z"/>
  <path fill="black" d="M29.321 17.431a.595.595 0 0 1-.353-.116L13.387 5.845a.596.596 0 0 1 .083-1.013l.367-.185a4.793 4.793 0 0 1 2.363-.504c1.875.085 4.225.202 4.78.276.704.094 1.447.472 2.044.776.173.089.336.171.469.232.254.115.6.31 1 .537.54.305 1.213.685 1.618.83.597.213 1.243.9 2.026 1.777.235.263.478.535.603.642.262.161 1.557.098 2.28-.111.472-.136.78.1.902.344.16.32.077.709-.277 1.3-.036.06-.345.572-.597.786-.04.08-.135.402-.024.92.088.413.155.678.216.861.155.467.11.985-.126 1.42l-.264.488c-.305.56-.684 1.256-.995 1.88a.596.596 0 0 1-.534.33Zm-14.4-11.939L29.11 15.94c.236-.451.481-.901.692-1.288l.261-.482a.61.61 0 0 0 .044-.478 9.513 9.513 0 0 1-.25-.988c-.193-.897-.024-1.727.419-2.08.039-.039.095-.111.156-.2-.798.113-1.91.164-2.453-.29-.191-.16-.43-.428-.733-.768-.44-.494-1.178-1.32-1.537-1.448-.501-.18-1.193-.57-1.803-.914-.36-.204-.7-.396-.907-.49-.157-.071-.331-.16-.516-.254-.517-.263-1.16-.59-1.661-.657-.394-.053-2.099-.15-4.677-.267-.414-.02-.83.035-1.225.157Zm15.375 5.117-.01.007.01-.007Zm1.056-.36h-.005.005Z"/>
  <path fill="url(#b)" d="M10.67 7.09c-.05.038-.11.083-.173.133-1.03.8-3.697 2.938-4.603 3.794l17.127 12.61c.846-.506 1.786-1.035 2.418-1.462.338-.23.588-.43.685-.581.48-.746 2.452-3.198 3.038-4.424.046-.097.096-.197.146-.299L13.711 5.379c-1.09.554-2.511 1.305-3.04 1.71h-.001Z"/>
  <path fill="black" d="M23.021 24.223a.594.594 0 0 1-.354-.116L5.54 11.498a.596.596 0 0 1-.056-.914c.95-.897 3.71-3.105 4.647-3.832l.177-.136c.454-.347 1.508-.942 3.133-1.768a.596.596 0 0 1 .624.051l15.597 11.482c.233.172.31.487.18.747-.05.099-.097.196-.142.29-.422.882-1.441 2.257-2.26 3.362-.36.484-.67.902-.814 1.127-.14.217-.395.442-.853.752-.464.315-1.065.667-1.702 1.04-.25.147-.5.294-.744.44a.595.595 0 0 1-.306.084ZM6.838 10.973l16.218 11.94.412-.242c.619-.364 1.204-.707 1.636-1 .424-.286.512-.4.52-.412.164-.255.47-.667.857-1.189.703-.949 1.652-2.228 2.07-3.024L13.655 6.079c-1.34.689-2.266 1.212-2.622 1.485l-.17.13c-.95.738-2.91 2.311-4.024 3.279Z"/>
  <path fill="url(#c)" d="M5.767 11.14c-.642.641-3.652 3.343-4.76 4.632-.272.317-.43.549-.409.643.107.48.8 1.226 1.173 1.066.14-.06.332-.217.56-.385.38-.279.859-.587 1.358-.52.8.106 2.878 2.45 2.878 2.45s-.426.853.053 1.173c.48.32.744.426 1.225 0 .48-.426.747-1.169 1.546-.318.8.851.906 1.49 2.132 1.757 1.225.267 1.545 1.12 2.291 1.705.746.587 1.439-.174 1.919.819.48.993.266 1.686 1.332 1.9 1.066.212 1.279.692 1.279.692s-1.705 1.28-1.812 1.439c-.107.16-.053 1.279-.053 1.652s.373.693.799.586c.426-.107 1.972-1.28 2.558-2.079.586-.799.906-2.504 1.279-3.303.154-.33.954-.852 1.873-1.402L5.868 11.043c-.037.034-.071.067-.1.097Z"/>
  <path fill="black" d="M17.111 31.048c-.275 0-.542-.09-.762-.262a1.19 1.19 0 0 1-.467-.942c0-.075-.002-.183-.005-.308-.023-1.079-.005-1.43.159-1.674.05-.074.135-.204 1.316-1.106a2.785 2.785 0 0 0-.404-.11c-1.1-.22-1.307-.906-1.49-1.511a4.71 4.71 0 0 0-.263-.715c-.109-.225-.115-.225-.453-.226-.323 0-.81 0-1.296-.383-.276-.216-.49-.451-.697-.678-.392-.431-.702-.772-1.353-.913-1.104-.24-1.51-.768-1.94-1.328-.148-.193-.3-.392-.5-.603-.094-.1-.16-.153-.2-.18a2.92 2.92 0 0 0-.194.204 3.916 3.916 0 0 1-.321.332c-.802.712-1.404.415-1.952.05-.513-.342-.579-.966-.41-1.541-.942-1.024-1.962-1.922-2.273-1.989-.27-.035-.618.188-.922.411l-.14.105c-.195.147-.363.273-.538.348-.183.079-.482.131-.864-.064-.504-.259-1.009-.896-1.125-1.42-.08-.358.128-.684.538-1.162.807-.938 2.577-2.588 3.748-3.68.482-.45.863-.805 1.043-.985.033-.033.07-.07.11-.107.21-.2.532-.22.765-.049l17.12 12.604a.597.597 0 0 1-.046.992c-1.268.76-1.575 1.046-1.643 1.15-.123.267-.25.68-.385 1.116-.247.798-.526 1.703-.95 2.28-.61.833-2.26 2.146-2.894 2.305a1.276 1.276 0 0 1-.311.038Zm-.036-1.21c.004.006.019.022.053.015.304-.105 1.697-1.131 2.227-1.853.304-.416.552-1.22.771-1.928.149-.481.29-.936.448-1.276.153-.328.518-.659 1.348-1.192L5.92 11.822c-.207.198-.483.455-.803.754-1.152 1.073-2.893 2.697-3.656 3.585-.105.122-.174.21-.218.27.093.163.266.356.389.441.06-.042.135-.098.196-.144l.15-.113c.496-.364 1.095-.724 1.791-.631.92.123 2.576 1.892 3.245 2.647a.596.596 0 0 1 .087.662c-.067.137-.118.34-.112.434.17.111.246.147.28.155a.713.713 0 0 0 .181-.13c.071-.063.145-.145.223-.232.232-.262.552-.62 1.056-.626h.013c.364 0 .72.19 1.085.578.239.255.418.488.576.694.38.494.57.742 1.247.889 1.023.222 1.533.782 1.982 1.276.182.199.354.388.551.543.156.122.292.128.562.128.408 0 1.092.002 1.526.9.162.337.255.642.329.887.16.526.184.607.583.687 1.302.26 1.65.908 1.707 1.035a.596.596 0 0 1-.187.72c-.63.471-1.363 1.039-1.629 1.266-.02.247-.008.77-.003 1.014.003.13.005.245.005.326Zm4.58-4.537Z"/>
  <path fill="url(#d)" d="M24.076 6.963c0 2.628-3.557 8.557-5.353 11.385a1.2 1.2 0 0 1-2.027 0C14.9 15.52 11.343 9.59 11.343 6.963a6.367 6.367 0 0 1 12.733 0Z"/>
  <path fill="black" d="M17.71 19.502a1.79 1.79 0 0 1-1.518-.834c-2.034-3.201-5.446-8.978-5.446-11.705A6.971 6.971 0 0 1 17.71 0a6.971 6.971 0 0 1 6.963 6.963c0 2.727-3.412 8.504-5.446 11.705a1.789 1.789 0 0 1-1.517.834Zm0-18.309a5.777 5.777 0 0 0-5.77 5.77c0 1.771 1.917 5.805 5.26 11.066.113.178.299.28.51.28.21 0 .396-.102.51-.28 3.342-5.262 5.26-9.295 5.26-11.065a5.777 5.777 0 0 0-5.771-5.771Z"/>
  <path fill="white" d="M17.709 9.969a3.005 3.005 0 1 0 0-6.01 3.005 3.005 0 0 0 0 6.01Z"/>
  <path fill="black" d="M17.71 10.565a3.605 3.605 0 0 1-3.602-3.602 3.605 3.605 0 0 1 3.601-3.6 3.605 3.605 0 0 1 3.601 3.6 3.605 3.605 0 0 1-3.6 3.602Zm0-6.01a2.411 2.411 0 0 0-2.41 2.408 2.411 2.411 0 0 0 2.41 2.409 2.411 2.411 0 0 0 2.408-2.409 2.412 2.412 0 0 0-2.409-2.408Z"/>
  <defs>
    <linearGradient id="a" x1="33.61" x2="25.107" y1="15.178" y2="10.18" gradientUnits="userSpaceOnUse">
      <stop offset=".01" stop-color="#013B00"/>
      <stop offset="1" stop-color="#01923F"/>
    </linearGradient>
    <linearGradient id="b" x1="28.829" x2="13.547" y1="20.954" y2="11.532" gradientUnits="userSpaceOnUse">
      <stop stop-color="#99272D"/>
      <stop offset="1" stop-color="#FF001B"/>
    </linearGradient>
    <linearGradient id="c" x1=".596" x2="22.988" y1="20.747" y2="20.747" gradientUnits="userSpaceOnUse">
      <stop stop-color="#FFFF00"/>
      <stop offset="1" stop-color="#FF9F00"/>
    </linearGradient>
    <linearGradient id="d" x1="17.59" x2="17.751" y1="22.672" y2="1.525" gradientUnits="userSpaceOnUse">
      <stop stop-color="#0113C2"/>
      <stop offset=".88" stop-color="#01C2E3"/>
      <stop offset=".96" stop-color="#C3FCFF"/>
    </linearGradient>
  </defs>
</svg>
