<svg xmlns="http://www.w3.org/2000/svg" fill="none" viewBox="0 0 88 125">
  <path fill="white" d="M59.373 53.334a1.31 1.31 0 0 1-.779-.255L20.93 25.349a1.312 1.312 0 0 1-.13-2.002l.057-.056a1.324 1.324 0 0 1 1.687-.11l37.68 27.74a1.314 1.314 0 0 1-.105 2.183l-.076.045a1.312 1.312 0 0 1-.67.183v.002ZM73.278 38.407c-.278 0-.551-.088-.778-.255l-34.313-25.26a1.314 1.314 0 0 1 .183-2.227l.065-.033a1.31 1.31 0 0 1 1.372.113l34.278 25.233c.512.378.68 1.069.397 1.64l-.031.064a1.312 1.312 0 0 1-1.174.725Z"/>
  <path fill="url(#a)" d="M76.096 31.794a2.64 2.64 0 0 0 .185-2.088c-.16-.484-.32-1.14-.512-2.035-.352-1.641 0-2.93.469-3.282.47-.352 2.579-3.511 1.172-3.104-1.407.408-5.159.883-6.213 0-1.056-.882-3.751-4.516-5.393-5.102-1.641-.587-4.572-2.463-5.861-3.049-1.29-.586-3.4-1.876-5.16-2.11-1.236-.165-7.058-.446-10.402-.598a9.197 9.197 0 0 0-4.549.97l-.803.405 34.277 25.235c.913-1.829 2.074-3.913 2.79-5.242Z"/>
  <path fill="#022C25" d="M73.306 38.349c-.278 0-.55-.088-.778-.255L38.251 12.859a1.314 1.314 0 0 1 .183-2.227c.281-.142.552-.28.808-.408a10.54 10.54 0 0 1 5.199-1.108c4.123.187 9.294.445 10.516.608 1.548.206 3.183 1.039 4.497 1.707.38.194.74.377 1.03.509.56.254 1.32.684 2.202 1.182 1.188.671 2.667 1.507 3.558 1.825 1.313.47 2.734 1.982 4.455 3.91.518.58 1.052 1.178 1.329 1.414.575.353 3.424.215 5.017-.246 1.037-.3 1.716.221 1.984.758.35.703.168 1.56-.611 2.863-.08.132-.76 1.255-1.312 1.728-.09.177-.298.884-.054 2.023.194.908.34 1.492.475 1.895a3.968 3.968 0 0 1-.276 3.124c-.171.32-.369.68-.582 1.073-.67 1.23-1.505 2.762-2.189 4.133a1.313 1.313 0 0 1-1.174.727ZM41.625 12.084l31.218 22.982c.52-.992 1.059-1.983 1.522-2.832.211-.387.407-.745.576-1.06.175-.326.21-.71.097-1.053-.168-.504-.333-1.154-.551-2.173-.423-1.974-.052-3.8.922-4.575.085-.087.209-.247.344-.44-1.757.247-4.203.358-5.398-.64-.42-.351-.947-.94-1.612-1.688-.97-1.086-2.593-2.904-3.38-3.186-1.104-.394-2.625-1.254-3.967-2.012-.794-.447-1.544-.871-1.997-1.078-.344-.156-.727-.351-1.135-.558-1.136-.578-2.55-1.298-3.654-1.445-.867-.116-4.617-.33-10.288-.588a7.906 7.906 0 0 0-2.697.346ZM75.45 23.34l-.022.017c.007-.006.015-.01.022-.017Zm2.325-.793-.013.003.013-.003Z"/>
  <path fill="url(#b)" d="m32.273 15.596-.382.294c-2.266 1.759-8.132 6.465-10.127 8.349l37.68 27.739c1.86-1.112 3.931-2.276 5.32-3.215.744-.505 1.293-.945 1.507-1.278 1.055-1.642 5.393-7.034 6.683-9.731.102-.214.21-.435.322-.659L38.964 11.834c-2.399 1.22-5.525 2.87-6.69 3.762Z"/>
  <path fill="#022C25" d="M59.446 53.29a1.31 1.31 0 0 1-.779-.256l-37.68-27.74a1.312 1.312 0 0 1-.123-2.01c2.09-1.975 8.16-6.831 10.223-8.431l.389-.3c.997-.763 3.316-2.07 6.892-3.888.442-.225.973-.18 1.373.113l34.313 25.26c.513.378.68 1.071.396 1.641-.108.217-.213.432-.312.64-.928 1.94-3.17 4.965-4.973 7.397-.79 1.065-1.472 1.985-1.789 2.478-.307.479-.868.973-1.876 1.656-1.021.692-2.344 1.467-3.743 2.288-.55.322-1.103.646-1.638.967-.208.125-.44.186-.673.186v-.002ZM23.842 24.137l35.681 26.267.905-.532c1.363-.799 2.65-1.554 3.6-2.198.932-.63 1.124-.88 1.144-.906.361-.561 1.034-1.469 1.885-2.617 1.548-2.088 3.635-4.903 4.557-6.652L38.84 13.37c-2.95 1.516-4.986 2.668-5.769 3.267l-.374.289c-2.093 1.623-6.403 5.083-8.854 7.21h-.001Z"/>
  <path fill="url(#c)" d="M21.489 24.507c-1.412 1.411-8.036 7.356-10.473 10.192-.6.697-.946 1.206-.9 1.414.235 1.056 1.759 2.697 2.58 2.345.308-.132.73-.478 1.232-.847.836-.615 1.89-1.292 2.989-1.146 1.758.234 6.33 5.392 6.33 5.392s-.937 1.876.118 2.58c1.055.703 1.637.937 2.694 0 1.058-.938 1.644-2.573 3.402-.7 1.758 1.871 1.993 3.278 4.69 3.864 2.696.586 3.4 2.462 5.04 3.751 1.642 1.29 3.166-.384 4.221 1.8 1.056 2.186.586 3.71 2.932 4.179 2.344.47 2.813 1.524 2.813 1.524s-3.751 2.813-3.986 3.165c-.234.351-.116 2.813-.116 3.634 0 .82.82 1.524 1.758 1.29.937-.235 4.338-2.814 5.627-4.572 1.29-1.758 1.993-5.51 2.814-7.269.338-.726 2.098-1.872 4.12-3.083L21.708 24.294c-.08.075-.154.148-.218.213h-.001Z"/>
  <path fill="#022C25" d="M46.446 68.305a2.715 2.715 0 0 1-1.678-.577 2.622 2.622 0 0 1-1.027-2.07c0-.168-.005-.405-.01-.679-.05-2.374-.012-3.145.348-3.683.109-.164.298-.448 2.896-2.433a6.13 6.13 0 0 0-.889-.243c-2.419-.484-2.875-1.991-3.279-3.323-.15-.498-.307-1.015-.576-1.571-.24-.496-.253-.496-.997-.497-.71-.001-1.784-.003-2.852-.842-.607-.477-1.077-.994-1.532-1.493-.863-.948-1.545-1.697-2.977-2.008-2.427-.527-3.321-1.69-4.267-2.922a16.729 16.729 0 0 0-1.1-1.327 2.762 2.762 0 0 0-.442-.396c-.125.111-.3.309-.426.45-.204.229-.435.488-.707.73-1.765 1.565-3.088.912-4.293.11-1.128-.753-1.273-2.126-.904-3.392-2.071-2.252-4.317-4.228-5-4.374-.594-.078-1.359.412-2.026.904l-.31.23c-.428.323-.798.602-1.183.767-.404.172-1.06.288-1.9-.142-1.11-.568-2.22-1.97-2.478-3.125-.174-.785.282-1.503 1.185-2.554 1.774-2.064 5.668-5.695 8.245-8.097 1.06-.989 1.898-1.77 2.294-2.166.073-.072.156-.153.243-.236a1.311 1.311 0 0 1 1.683-.106l37.665 27.728a1.313 1.313 0 0 1-.103 2.182c-2.789 1.671-3.463 2.302-3.613 2.531-.27.585-.551 1.493-.847 2.454-.543 1.756-1.158 3.747-2.09 5.018-1.342 1.83-4.972 4.72-6.367 5.07a2.82 2.82 0 0 1-.684.085l-.002-.003Zm-.08-2.663c.01.014.041.05.118.034.669-.232 3.733-2.489 4.898-4.078.67-.915 1.216-2.681 1.698-4.24.327-1.06.636-2.06.985-2.808.337-.721 1.139-1.449 2.967-2.624L21.823 26.008c-.456.434-1.064 1-1.769 1.657-2.533 2.363-6.363 5.934-8.043 7.888-.23.27-.382.46-.478.594.205.36.585.783.856.971.134-.093.297-.217.431-.317l.331-.247c1.09-.803 2.41-1.596 3.94-1.39 2.024.27 5.667 4.163 7.139 5.824.355.401.43.978.191 1.457-.147.302-.26.749-.246.954.374.245.54.323.615.342.041-.017.167-.079.399-.285.157-.14.318-.32.49-.513.512-.575 1.214-1.362 2.323-1.377h.03c.802 0 1.582.416 2.386 1.273.527.561.92 1.074 1.268 1.525.835 1.087 1.255 1.633 2.744 1.957 2.25.489 3.37 1.72 4.36 2.805.4.44.779.854 1.214 1.196.341.268.642.28 1.235.282.898 0 2.402.004 3.356 1.98.359.741.562 1.413.725 1.951.35 1.157.404 1.336 1.282 1.51 2.866.574 3.631 1.998 3.755 2.278a1.313 1.313 0 0 1-.411 1.583c-1.386 1.038-2.999 2.286-3.583 2.787-.043.541-.018 1.693-.008 2.228.006.288.011.539.012.719v.002Zm10.077-9.981-.001.002v-.002Z"/>
  <path fill="url(#d)" d="M61.769 15.319c0 5.782-7.825 18.826-11.778 25.047-1.039 1.633-3.42 1.633-4.459 0C41.58 34.145 33.754 21.1 33.754 15.319c0-7.736 6.272-14.008 14.008-14.008 7.735 0 14.007 6.272 14.007 14.008Z"/>
  <path fill="#022C25" d="M47.76 42.904a3.934 3.934 0 0 1-3.336-1.834c-4.475-7.043-11.982-19.753-11.982-25.752C32.442 6.873 39.314 0 47.76 0c8.446 0 15.32 6.872 15.32 15.32 0 5.998-7.508 18.708-11.983 25.75a3.934 3.934 0 0 1-3.337 1.834Zm0-40.28c-7 0-12.694 5.695-12.694 12.694 0 3.897 4.218 12.77 11.572 24.344.25.392.658.616 1.123.616.464 0 .872-.224 1.122-.616 7.355-11.575 11.572-20.448 11.572-24.343 0-7-5.695-12.695-12.694-12.695Z"/>
  <path fill="white" d="M47.76 21.93a6.61 6.61 0 1 0 0-13.222 6.61 6.61 0 0 0 0 13.221Z"/>
  <path fill="#022C25" d="M47.762 23.242c-4.369 0-7.923-3.553-7.923-7.922s3.554-7.922 7.923-7.922c4.368 0 7.922 3.553 7.922 7.922s-3.554 7.922-7.922 7.922Zm0-13.22a5.304 5.304 0 0 0-5.298 5.298 5.304 5.304 0 0 0 5.298 5.298 5.304 5.304 0 0 0 5.298-5.298 5.304 5.304 0 0 0-5.298-5.298Z"/>
  <g clip-path="url(#e)">
    <path fill="#022C25" d="M7.171 84.383c.038.154.058.308.058.442 0 .403-.211.652-.615.787-.134.019-.21.038-.307.038-.384 0-.691-.211-.825-.653l-1.747-6.123c0-.077-.038-.115-.115-.115-.058 0-.096.058-.096.153v11.076c0 .442-.384.75-.902.75s-.902-.308-.902-.75V78.933c0-.864.614-1.824 1.92-1.824 1.074 0 1.65.69 1.862 1.362l1.67 5.912-.001.001Zm-.096 2.784c-.019-.058-.019-.135-.019-.23 0-.116.038-.25.096-.404.096-.173.288-.327.518-.48a.779.779 0 0 0 .25-.25l.115-.287 1.977-7.045c.21-.672.787-1.363 1.862-1.363 1.305 0 1.92.96 1.92 1.824V89.99c0 .442-.384.749-.903.749-.518 0-.902-.307-.902-.749V78.913c0-.096-.038-.154-.115-.154-.058 0-.096.038-.115.115L9.706 86.17c-.231.845-.788 1.65-1.709 1.65-.441 0-.825-.21-.92-.652h-.002ZM22.547 89.855c0 .326-.154.652-.48.748-.46.135-.96.192-1.516.192-3.13 0-3.993-1.709-4.204-2.419a4.043 4.043 0 0 1-.154-1.075c0-.364.058-.729.154-1.074.48-1.613 1.862-2.419 4.165-2.419.308 0 .614.02.979.038.442.058.652.365.652.768v.077c-.057.365-.25.71-.69.71h-.039c-.326-.019-.614-.038-.864-.038-2.15 0-2.361.883-2.515 1.287-.058.172-.076.383-.076.652s.018.48.076.633c.269.845 1.114 1.267 2.515 1.267.307 0 .614-.038.902-.096.135-.058.211-.038.308-.038.364 0 .614.154.729.46.038.096.058.212.058.327Zm.268-1.651c0-.115.02-.231.058-.346.135-.384.154-.902.154-1.612v-1.651c0-.98-.25-1.69-.614-1.978-.404-.403-1.018-.595-1.862-.595-1.037 0-1.612.115-2.611.384a1.51 1.51 0 0 1-.269.038c-.364 0-.729-.192-.825-.576-.019-.134-.038-.211-.038-.269 0-.384.25-.672.633-.768 1.133-.307 1.901-.403 3.11-.403 1.324 0 2.361.345 3.129 1.055.94.864 1.114 1.958 1.114 3.494v1.267c0 .902-.058 1.632-.308 2.303-.134.365-.422.48-.73.48a.91.91 0 0 1-.46-.115c-.364-.154-.48-.422-.48-.71v.002ZM28.209 82.156c.154 0 .307.038.46.115.327.135.461.442.461.75 0 .114-.019.23-.058.345-.058.153-.077.307-.134.518-.058.46-.077 1.037-.077 1.728v7.813c0 .441-.404.729-.883.729-.48 0-.883-.288-.883-.73v-7.812c0-.614 0-1.325.096-1.939a4.03 4.03 0 0 1 .268-.998c.154-.364.442-.518.75-.518Zm1.555 7.736c0-.595.346-.806.633-.806.038 0 .058 0 .077.02.365.057.691.095.98.095 1.477 0 2.322-.614 2.494-1.862.077-.518.077-1.17.077-1.728 0-.557 0-1.21-.077-1.728-.172-1.247-1.017-1.861-2.495-1.861-.365 0-.672.057-.96.115-.058.019-.134.019-.268.019-.327 0-.634-.134-.73-.519a.773.773 0 0 1-.058-.287c0-.384.25-.672.557-.749a5.745 5.745 0 0 1 1.46-.173c2.38 0 3.953 1.19 4.241 3.245.077.556.096 1.151.096 1.938 0 .787-.019 1.383-.096 1.94-.288 2.053-1.843 3.243-4.165 3.243a4.74 4.74 0 0 1-1.21-.134c-.364-.058-.556-.365-.556-.768ZM44.064 89.854c0 .327-.154.653-.48.749-.46.134-.96.192-1.516.192-3.13 0-3.993-1.709-4.204-2.419a4.043 4.043 0 0 1-.154-1.075c0-.364.058-.729.154-1.075.48-1.612 1.862-2.418 4.165-2.418.307 0 .614.02.979.038.441.058.652.365.652.768v.077c-.057.365-.25.71-.69.71h-.039c-.326-.019-.614-.038-.864-.038-2.15 0-2.361.883-2.515 1.287-.058.172-.077.383-.077.652s.02.48.077.633c.269.845 1.114 1.267 2.515 1.267.307 0 .614-.038.902-.096.135-.058.211-.038.308-.038.364 0 .614.154.729.46.038.096.058.211.058.327Zm.268-1.65c0-.116.02-.231.058-.346.135-.384.154-.902.154-1.612v-1.651c0-.98-.25-1.69-.614-1.978-.404-.403-1.018-.595-1.862-.595-1.037 0-1.613.115-2.611.384-.096.019-.192.038-.269.038-.364 0-.73-.192-.825-.576-.02-.134-.038-.211-.038-.27 0-.383.25-.671.633-.767 1.133-.308 1.9-.404 3.11-.404 1.324 0 2.36.346 3.129 1.056.94.864 1.113 1.958 1.113 3.494v1.267c0 .902-.057 1.632-.307 2.303-.134.365-.422.48-.73.48a.909.909 0 0 1-.46-.115c-.364-.154-.48-.423-.48-.71v.001Z"/>
    <path fill="#079473" d="M2.176 110.268c-.645-.27-1.04-.665-1.04-1.393 0-.811.582-1.434 1.413-1.434.187 0 .375.02.54.062 1.248.332 1.914.707 3.265.707 1.061 0 2.496-.208 2.496-1.601 0-2.62-7.527-.749-7.527-6.322 0-3.056 2.807-4.2 5.489-4.2 1.164 0 2.516.125 3.618.54.644.23 1.06.604 1.06 1.331 0 .832-.52 1.456-1.372 1.456a1.85 1.85 0 0 1-.603-.083c-.977-.229-1.892-.5-2.87-.5-.831 0-2.224.23-2.224 1.31 0 2.557 7.548.645 7.548 6.342 0 3.348-2.703 4.491-5.614 4.491-1.352 0-2.932-.145-4.18-.707v.001ZM15.15 109.894c-.853-.644-1.352-1.497-1.519-2.557-.083-.583-.104-1.165-.104-1.975 0-.811.021-1.394.104-1.975.167-1.061.665-1.913 1.518-2.558.956-.727 2.184-1.08 3.68-1.08 1.497 0 2.703.353 3.66 1.08.852.645 1.351 1.497 1.518 2.558.104.644.104 1.33.104 1.975 0 .644 0 1.33-.104 1.975-.167 1.06-.666 1.913-1.519 2.557-.935.727-2.141 1.081-3.659 1.081-1.517 0-2.745-.354-3.68-1.081Zm1.538-6.155c-.083.479-.083 1.061-.083 1.623 0 .561 0 1.143.083 1.622.062.561.436 1.351 2.141 1.351s2.017-.79 2.121-1.351c.062-.437.083-.957.083-1.622 0-.666-.02-1.185-.083-1.623-.104-.561-.395-1.351-2.12-1.351-1.727 0-2.08.79-2.142 1.351ZM28.146 110.58c-1.269-.727-1.851-1.955-1.851-3.535V96.711c0-.728.686-1.205 1.538-1.205.853 0 1.539.478 1.539 1.205v10.251c0 .811.125 1.123.79 1.539.333.187.561.582.561 1.019 0 .228-.062.478-.207.707-.271.457-.645.686-1.165.686-.395 0-.894-.167-1.206-.333ZM32.263 109.686v-8.649c0-.832.79-1.206 1.538-1.206s1.538.374 1.538 1.206v8.649c0 .832-.79 1.227-1.538 1.227s-1.538-.395-1.538-1.227Zm.166-12.184c0-.749.624-1.373 1.372-1.373.75 0 1.373.624 1.373 1.373s-.623 1.372-1.373 1.372a1.384 1.384 0 0 1-1.372-1.372ZM48.086 96.711v8.837c0 .603-.02 1.206-.103 1.788-.437 2.578-2.787 3.639-5.178 3.639s-4.762-1.019-5.198-3.639c-.104-.644-.104-1.31-.104-1.975s0-1.331.104-1.975c.395-2.37 2.245-3.639 4.574-3.639.957 0 1.892.187 2.828.582v-3.618c0-.832.79-1.205 1.538-1.205.749 0 1.539.374 1.539 1.205Zm-3.077 8.817v-2.765c-.728-.229-1.456-.395-2.204-.395-2.245 0-2.224 1.185-2.224 2.994 0 1.809-.021 2.973 2.224 2.973 2.08 0 2.204-.998 2.204-2.807ZM59.021 100.911c1.227 1.061 1.414 2.329 1.414 3.826v1.248c0 1.518-.125 2.807-1.352 3.867-.998.832-2.557 1.123-3.826 1.123-2.474 0-5.302-.748-5.302-3.722 0-2.973 2.079-3.555 4.637-3.555.894 0 1.83.104 2.765.291-.083-1.435-.686-1.913-2.1-1.913-.998 0-1.85.312-2.786.54a2.032 2.032 0 0 1-.5.062c-.81 0-1.35-.478-1.35-1.289 0-.665.457-.977 1.04-1.165a13.065 13.065 0 0 1 3.596-.478c1.33 0 2.745.312 3.764 1.165Zm-1.663 5.448v-.333a18.336 18.336 0 0 0-2.37-.166c-1.123 0-1.955.166-1.955 1.455 0 1.289 1.268 1.435 2.224 1.435 1.601 0 2.1-.873 2.1-2.391Zm-3.743-8.171c0-.291.104-.52.312-.686l2.08-1.934a1 1 0 0 1 .623-.229c.52 0 .936.416.936.915 0 .27-.104.52-.291.707l-2.08 1.913a.965.965 0 0 1-.644.25.932.932 0 0 1-.936-.936ZM62.516 109.686v-4.449c0-.644 0-1.248.104-1.851.499-2.724 2.536-3.639 5.115-3.639 1.04 0 3.368.125 3.368 1.56 0 .811-.457 1.476-1.31 1.476-.727 0-1.393-.375-2.12-.375-2.163 0-2.08 1.29-2.08 2.994v4.284c0 .832-.79 1.226-1.538 1.226-.749 0-1.539-.394-1.539-1.226ZM72.121 109.686v-8.649c0-.832.79-1.206 1.539-1.206.748 0 1.538.374 1.538 1.206v8.649c0 .832-.79 1.227-1.538 1.227-.749 0-1.539-.395-1.539-1.227Zm.167-12.184c0-.749.623-1.373 1.372-1.373.75 0 1.373.624 1.373 1.373s-.624 1.372-1.373 1.372a1.384 1.384 0 0 1-1.372-1.372ZM78.983 109.894c-.852-.644-1.352-1.497-1.518-2.557-.083-.583-.104-1.165-.104-1.975 0-.811.021-1.394.104-1.975.167-1.061.666-1.913 1.518-2.558.956-.727 2.183-1.08 3.68-1.08 1.497 0 2.703.353 3.66 1.08.851.645 1.35 1.497 1.517 2.558.104.644.104 1.33.104 1.975 0 .644 0 1.33-.104 1.975-.167 1.06-.666 1.913-1.518 2.557-.936.727-2.142 1.081-3.66 1.081-1.517 0-2.744-.354-3.68-1.081Zm1.538-6.155c-.083.479-.083 1.061-.083 1.623 0 .561 0 1.143.083 1.622.062.561.437 1.351 2.142 1.351 1.705 0 2.017-.79 2.12-1.351.063-.437.084-.957.084-1.622 0-.666-.021-1.185-.083-1.623-.104-.561-.395-1.351-2.121-1.351s-2.08.79-2.142 1.351Z"/>
  </g>
  <defs>
    <linearGradient id="a" x1="82.742" x2="64.035" y1="33.393" y2="22.397" gradientUnits="userSpaceOnUse">
      <stop offset=".01" stop-color="#013B00"/>
      <stop offset="1" stop-color="#01923F"/>
    </linearGradient>
    <linearGradient id="b" x1="72.223" x2="38.604" y1="46.099" y2="25.37" gradientUnits="userSpaceOnUse">
      <stop stop-color="#99272D"/>
      <stop offset="1" stop-color="#FF001B"/>
    </linearGradient>
    <linearGradient id="c" x1="10.113" x2="59.373" y1="45.643" y2="45.643" gradientUnits="userSpaceOnUse">
      <stop stop-color="#FFFF00"/>
      <stop offset="1" stop-color="#FF9F00"/>
    </linearGradient>
    <linearGradient id="d" x1="47.499" x2="47.853" y1="49.879" y2="3.355" gradientUnits="userSpaceOnUse">
      <stop stop-color="#0113C2"/>
      <stop offset=".88" stop-color="#01C2E3"/>
      <stop offset=".96" stop-color="#C3FCFF"/>
    </linearGradient>
    <clipPath id="e">
      <path fill="white" d="M0 77.108h88v47.809H0z"/>
    </clipPath>
  </defs>
</svg>
